<svg xmlns="http://www.w3.org/2000/svg" width="5.25in" height="1.15in" viewBox="0 0 299.05 79.37"><defs><style>.cls-1{fill:#0a2240;}.cls-2{fill:#e0592a;}</style></defs><g id="Layer_2" data-name="Layer 2"><g id="Layer_1-2" data-name="Layer 1"><g id="Layer_1-2-2" data-name="Layer 1-2"><path class="cls-1" d="M19.56,78.77v-1.6a15.64,15.64,0,0,0,3.05-.42,1.83,1.83,0,0,0,.79-.68,2.67,2.67,0,0,0,.33-1.47V63.37H9V74.31a2.38,2.38,0,0,0,.83,2,6.51,6.51,0,0,0,3.26.86v1.6H0v-1.6c2-.08,3.24-.36,3.64-.82a2.59,2.59,0,0,0,.6-1.76V51.86c0-1.77-1.41-2.78-4.24-3V47.27H13.05v1.58a8.54,8.54,0,0,0-3.2.71A2.18,2.18,0,0,0,9,51.62v9.8H23.74V51.86c0-1.77-1.39-2.78-4.18-3V47.27H32.62v1.58a8.45,8.45,0,0,0-3.26.73,2.16,2.16,0,0,0-.9,2V74.31a2.31,2.31,0,0,0,.9,2,7,7,0,0,0,3.26.83v1.6Z"/><path class="cls-1" d="M51.33,73.65q-3.06,5.73-9,5.72a9.59,9.59,0,0,1-7.69-3.23,12.63,12.63,0,0,1-2.77-8.51,12,12,0,0,1,2.81-8,8.94,8.94,0,0,1,7.18-3.35c2.92,0,5.1.84,6.63,2.52a9.82,9.82,0,0,1,2.3,6.89v1.46H36.28c0,3.12.63,5.51,1.9,7.22a6.34,6.34,0,0,0,5.42,2.55A6.27,6.27,0,0,0,47,76.05,9.87,9.87,0,0,0,49.8,72.7Zm-4.91-8.37q0-7.34-4.59-7.33A4.77,4.77,0,0,0,38,59.9a9,9,0,0,0-1.68,5.38Z"/><path class="cls-1" d="M73.62,78.38a11.16,11.16,0,0,1-3.6.84c-2.32,0-3.69-1-4.1-3.18h-.14a9.2,9.2,0,0,1-7.09,3.28,5.62,5.62,0,0,1-4-1.5,5.18,5.18,0,0,1-1.58-4,5.57,5.57,0,0,1,1.5-4.2A14.19,14.19,0,0,1,59.76,67a50.82,50.82,0,0,0,6.06-2.22V62.59a5.3,5.3,0,0,0-1.06-3.3,3.66,3.66,0,0,0-3.12-1.39,4.23,4.23,0,0,0-3.13,1,5.36,5.36,0,0,0,.2,1.31,6,6,0,0,1,.2,1.61,1.81,1.81,0,0,1-.76,1.45,3,3,0,0,1-1.88.6c-1.42,0-2.13-.84-2.13-2.53q0-2,2.48-3.54a9.69,9.69,0,0,1,5.29-1.57q4.55,0,6.32,1.79T70,63.51l-.14,10.94a2.46,2.46,0,0,0,.57,1.78,2,2,0,0,0,1,.65A17.31,17.31,0,0,0,73.6,77v1.42ZM65.88,66.63q-4.84,1.43-6.6,2.93a4.76,4.76,0,0,0-1.76,3.75q0,3.56,3.39,3.56a6.33,6.33,0,0,0,4.82-2.55Z"/><path class="cls-1" d="M74.9,78.77V77.31L76,77.2c1.45-.09,2.18-.81,2.18-2.15V52.1a3.6,3.6,0,0,0-.7-2.06c-.46-.68-1.71-1.1-3.72-1.24V47.33L82,46.84l.31.31V74.78c0,1.51,1.1,2.36,3.29,2.53v1.46Z"/><path class="cls-1" d="M100.34,77.82a14.76,14.76,0,0,1-5.91,1.4c-3.34,0-5-1.76-5-5.26V59.08h-4V57h4.06V50.18h4V57h6.26v2.09H93.62V71.32a8.68,8.68,0,0,0,.68,4.14c.46.73,1.42,1.09,2.86,1.09a11.57,11.57,0,0,0,3.18-.37v1.64Z"/><path class="cls-1" d="M115.8,78.77V77.31L117,77.2c1.48-.09,2.22-.81,2.22-2.15V63.77a5.54,5.54,0,0,0-1-3.53,3.32,3.32,0,0,0-2.72-1.33,6.12,6.12,0,0,0-5.68,3.33V74.83c0,1.5,1.12,2.32,3.38,2.49v1.45H102.35V77.31l1.09-.11c1.43-.11,2.15-.83,2.15-2.15V52a3.65,3.65,0,0,0-.44-1.7,2.06,2.06,0,0,0-1.1-1.08,12.34,12.34,0,0,0-2.75-.4V47.32l8.11-.49.31.31V60h.08a13.74,13.74,0,0,1,4-3.09,9.36,9.36,0,0,1,3.45-.64q6.08,0,6.08,7.24V74.87c0,1.46,1.07,2.28,3.2,2.44v1.46Z"/><path class="cls-1" d="M145.73,73.69a11.39,11.39,0,0,1-3.81,4.11,9,9,0,0,1-5,1.57,9.21,9.21,0,0,1-7.43-3.16,12.63,12.63,0,0,1-2.7-8.49,11.88,11.88,0,0,1,2.94-8.08,9.47,9.47,0,0,1,7.48-3.38,8.15,8.15,0,0,1,5.3,1.59,5.1,5.1,0,0,1,2,4.14c0,1.87-.76,2.81-2.27,2.81a3,3,0,0,1-2-.64,1.93,1.93,0,0,1-.74-1.49,8.71,8.71,0,0,1,.26-2c.18-.75.29-1.28.34-1.6-.43-.75-1.4-1.13-2.91-1.13A4.78,4.78,0,0,0,133,60.42q-1.6,2.47-1.61,7.11a11.48,11.48,0,0,0,1.85,6.79A5.66,5.66,0,0,0,138,76.91q3.8,0,6.27-4.18l1.47,1Z"/><path class="cls-1" d="M167.52,78.38a11.16,11.16,0,0,1-3.6.84c-2.32,0-3.69-1-4.1-3.18h-.14a9.2,9.2,0,0,1-7.09,3.28,5.62,5.62,0,0,1-4.05-1.5,5.18,5.18,0,0,1-1.58-4,5.57,5.57,0,0,1,1.5-4.2,14.19,14.19,0,0,1,5.2-2.68,50.82,50.82,0,0,0,6.06-2.22V62.59a5.3,5.3,0,0,0-1.06-3.3,3.66,3.66,0,0,0-3.12-1.39,4.23,4.23,0,0,0-3.13,1,5.36,5.36,0,0,0,.2,1.31,6,6,0,0,1,.2,1.61,1.81,1.81,0,0,1-.76,1.45,3,3,0,0,1-1.88.6c-1.42,0-2.14-.84-2.14-2.53,0-1.32.84-2.5,2.49-3.54a9.69,9.69,0,0,1,5.29-1.57q4.55,0,6.32,1.79c1.18,1.19,1.78,3,1.78,5.45l-.14,10.94a2.5,2.5,0,0,0,.56,1.78,2.07,2.07,0,0,0,1,.65,17.52,17.52,0,0,0,2.15.08v1.42Zm-7.74-11.75c-3.24,1-5.43,1.93-6.6,2.93a4.76,4.76,0,0,0-1.76,3.75q0,3.56,3.39,3.56a6.34,6.34,0,0,0,4.82-2.55Z"/><path class="cls-1" d="M181.25,58.86a6,6,0,0,0-4.84,3.22V74.82a2.05,2.05,0,0,0,.76,1.76,7.68,7.68,0,0,0,3.43.74v1.45H169.06V77.31l1.06-.11c1.43-.11,2.15-.83,2.15-2.15V61.55c0-1.92-1.16-2.92-3.46-3V57.08l7.28-.44.31.31v3h.11q2.87-3.65,6.13-3.64a3.08,3.08,0,0,1,2.29.9,3.85,3.85,0,0,1,.28,4.54,2,2,0,0,1-1.65.8,2.73,2.73,0,0,1-1.85-.6,1.81,1.81,0,0,1-.71-1.45,7.74,7.74,0,0,1,.25-1.68Z"/><path class="cls-1" d="M205.38,73.65q-3.06,5.73-9,5.72a9.59,9.59,0,0,1-7.69-3.23,12.64,12.64,0,0,1-2.77-8.52,12,12,0,0,1,2.81-8,8.94,8.94,0,0,1,7.18-3.35c2.92,0,5.1.84,6.63,2.52a9.85,9.85,0,0,1,2.29,6.89v1.47H190.33q0,4.67,1.9,7.21a6.35,6.35,0,0,0,5.42,2.56A6.28,6.28,0,0,0,201,76a9.77,9.77,0,0,0,2.85-3.35l1.53,1Zm-4.9-8.37q0-7.34-4.59-7.33A4.77,4.77,0,0,0,192,59.9a9,9,0,0,0-1.68,5.38Z"/><path class="cls-1" d="M9.92,13.53H24a.29.29,0,0,0,.29-.29V1.2a.61.61,0,0,1,.61-.61h5.17a.61.61,0,0,1,.61.61V32.09a.61.61,0,0,1-.61.61H24.89a.61.61,0,0,1-.61-.61V19.79A.28.28,0,0,0,24,19.5H9.92a.29.29,0,0,0-.3.29v12.3a.6.6,0,0,1-.6.61H3.84a.61.61,0,0,1-.61-.61V1.2A.62.62,0,0,1,3.84.59H9.06a.56.56,0,0,1,.56.57V13.23A.3.3,0,0,0,9.92,13.53Z"/><path class="cls-1" d="M64.36,9.64,60.06,12a.58.58,0,0,1-.78-.15,22.14,22.14,0,0,0-1.85-2.56,9,9,0,0,0-7.18-3.13c-5.64,0-9.83,4.27-9.83,10.51,0,6.45,4.33,10.51,9.83,10.51a9.45,9.45,0,0,0,6.89-2.88,21,21,0,0,0,2-2.74.57.57,0,0,1,.81-.12l4.52,2.15a.62.62,0,0,1,.13.85,25.56,25.56,0,0,1-2.22,3.47A15.59,15.59,0,0,1,50.29,33.3c-9.59,0-16.35-7-16.35-16.65S40.7,0,50.29,0A15,15,0,0,1,62.83,6.08a20.58,20.58,0,0,1,1.69,2.71A.59.59,0,0,1,64.36,9.64Z"/><path class="cls-1" d="M97.28,31.94,85.22,1A.58.58,0,0,0,84.7.59h-7a.57.57,0,0,0-.52.36l-12.06,31a.56.56,0,0,0,.52.77h5.46a.56.56,0,0,0,.53-.37l2.59-6.91a.29.29,0,0,1,.28-.2h4.87a5.27,5.27,0,0,0,4.88-5.55.36.36,0,0,0-.36-.35h-7a.31.31,0,0,1-.29-.4L80.84,7.67a.3.3,0,0,1,.56,0l9.22,24.67a.55.55,0,0,0,.53.37h5.62a.56.56,0,0,0,.51-.77Z"/><path class="cls-2" d="M104.27,22.18h3.63a2.59,2.59,0,0,1,2.59,2.59V28.4a4.32,4.32,0,0,0,4.05,4.35.25.25,0,0,0,.24-.26V23.4a5.5,5.5,0,0,0-5.51-5.51h-9.1a.25.25,0,0,0-.25.24,4.31,4.31,0,0,0,4.35,4.05Z"/><path class="cls-2" d="M104.27,10.65h3.63a2.58,2.58,0,0,0,2.59-2.59V4.43A4.3,4.3,0,0,1,114.54.09a.25.25,0,0,1,.24.25v9.1A5.5,5.5,0,0,1,109.27,15h-9.1a.25.25,0,0,1-.25-.24,4.32,4.32,0,0,1,4.35-4.06Z"/><path class="cls-2" d="M128.24,22.18h-3.63A2.58,2.58,0,0,0,122,24.77V28.4a4.32,4.32,0,0,1-4,4.35.26.26,0,0,1-.25-.26V23.4a5.51,5.51,0,0,1,5.52-5.51h9.1a.25.25,0,0,1,.25.24A4.31,4.31,0,0,1,128.24,22.18Z"/><path class="cls-2" d="M128.24,10.65h-3.63A2.58,2.58,0,0,1,122,8.06V4.43a4.3,4.3,0,0,0-4-4.34.25.25,0,0,0-.25.25v9.1A5.51,5.51,0,0,0,123.24,15h9.1a.25.25,0,0,0,.25-.24A4.32,4.32,0,0,0,128.24,10.65Z"/><path class="cls-2" d="M116.89,13.75a7.27,7.27,0,0,0,2,2c.63.4.63.87,0,1.27a7.27,7.27,0,0,0-2,2c-.4.63-.87.63-1.27,0a7.17,7.17,0,0,0-2-2c-.62-.4-.63-.87,0-1.27a7.17,7.17,0,0,0,2-2C116,13.11,116.49,13.11,116.89,13.75Z"/><path class="cls-1" d="M157.74,32V30.41A15.66,15.66,0,0,0,160.8,30a1.77,1.77,0,0,0,.79-.68,2.67,2.67,0,0,0,.33-1.47V16.6H147.15v11a2.47,2.47,0,0,0,.82,2,6.57,6.57,0,0,0,3.27.85V32H138.18V30.42c2-.08,3.24-.36,3.64-.82a2.59,2.59,0,0,0,.6-1.76V5.1c0-1.77-1.41-2.79-4.24-3V.51h13.06V2.08a8.66,8.66,0,0,0-3.21.71,2.19,2.19,0,0,0-.88,2.07v9.79h14.77V5.1c0-1.77-1.39-2.79-4.18-3V.51H170.8V2.08a8.4,8.4,0,0,0-3.25.74,2.17,2.17,0,0,0-.9,2v22.7a2.31,2.31,0,0,0,.9,2,7.07,7.07,0,0,0,3.25.83V32H157.74Z"/><path class="cls-1" d="M181.41,32.7A9.86,9.86,0,0,1,174,29.46a11.58,11.58,0,0,1-3-8.3,12,12,0,0,1,3-8.41,10.12,10.12,0,0,1,7.83-3.25,9.77,9.77,0,0,1,7.63,3.16,11.55,11.55,0,0,1,2.92,8.16,12.61,12.61,0,0,1-3,8.53A10.06,10.06,0,0,1,181.41,32.7Zm.26-21.52a5.08,5.08,0,0,0-4.59,2.62,13.33,13.33,0,0,0-1.6,7,14.88,14.88,0,0,0,1.61,7.44,5,5,0,0,0,4.58,2.8,4.78,4.78,0,0,0,4.42-2.77,14.79,14.79,0,0,0,1.58-7.37,13.69,13.69,0,0,0-1.54-7.09,4.92,4.92,0,0,0-4.46-2.61Z"/><path class="cls-1" d="M209.42,32.1l-.35-.31V29h-.16a9.54,9.54,0,0,1-7.25,3.55c-4,0-6-2.46-6-7.42V14.69q0-2.74-3.44-2.86V10.36l7.33-.49.3.31v15.2a5.49,5.49,0,0,0,1,3.49,3.21,3.21,0,0,0,2.63,1.28A6.23,6.23,0,0,0,209,26.93V14.52a2.62,2.62,0,0,0-.58-1.68,1.9,1.9,0,0,0-1.19-.83c-.41-.06-1.2-.12-2.39-.18V10.36l8-.49.35.31V27.55c0,1.75,1.11,2.62,3.31,2.6v1.46l-7.08.49Z"/><path class="cls-1" d="M220.84,30.66l-.44,1.4h-1.65l-.22-7.59H220A9.52,9.52,0,0,0,222.6,29a6.07,6.07,0,0,0,4.4,1.91c3,0,4.44-1.25,4.44-3.73a3.27,3.27,0,0,0-1.1-2.53,12.77,12.77,0,0,0-4.54-2q-6.74-2-6.73-6.69a5.87,5.87,0,0,1,2.06-4.58,7.65,7.65,0,0,1,5.32-1.84,9.91,9.91,0,0,1,4.81,1.14l.52-1.18h1.58l.37,7.06h-1.55c-.81-3.55-2.74-5.33-5.77-5.33a4.25,4.25,0,0,0-2.83.9,2.8,2.8,0,0,0-1.08,2.23,3,3,0,0,0,1,2.53,17,17,0,0,0,4.52,2q3.93,1.26,5.37,2.88a5.75,5.75,0,0,1,1.44,4,6.22,6.22,0,0,1-2.31,5,8.86,8.86,0,0,1-5.89,2,9.41,9.41,0,0,1-5.82-2Z"/><path class="cls-1" d="M251.05,31.06a14.86,14.86,0,0,1-5.9,1.39c-3.34,0-5-1.75-5-5.26V12.31h-3.95V10.22h4.06V3.4h4v6.82h6.27v2.09h-6.22V24.55a8.68,8.68,0,0,0,.68,4.14c.46.74,1.41,1.1,2.86,1.1a11.53,11.53,0,0,0,3.18-.38v1.65Z"/><path class="cls-1" d="M262.62,32.7a9.86,9.86,0,0,1-7.45-3.24,11.58,11.58,0,0,1-3-8.3,12,12,0,0,1,3-8.41,10.11,10.11,0,0,1,7.83-3.25,9.77,9.77,0,0,1,7.63,3.16,11.59,11.59,0,0,1,2.92,8.16,12.62,12.62,0,0,1-3,8.53A10,10,0,0,1,262.62,32.7Zm.27-21.52a5.11,5.11,0,0,0-4.6,2.62,13.23,13.23,0,0,0-1.61,7,14.88,14.88,0,0,0,1.61,7.44,5.05,5.05,0,0,0,4.59,2.8,4.78,4.78,0,0,0,4.42-2.77,14.79,14.79,0,0,0,1.58-7.37,13.79,13.79,0,0,0-1.54-7.09,4.88,4.88,0,0,0-4.45-2.61Z"/><path class="cls-1" d="M288.32,32V30.55l1.13-.11c1.49-.09,2.22-.81,2.22-2.15V17a5.53,5.53,0,0,0-1.05-3.54,3.32,3.32,0,0,0-2.72-1.32,6.13,6.13,0,0,0-5.68,3.34V28.07c0,1.49,1.12,2.32,3.38,2.49V32H274.87V30.56l1.06-.11c1.44-.1,2.15-.82,2.15-2.15V14.78c0-1.91-1.16-2.91-3.46-3V10.32l7.28-.45.31.31v3h.11a13.33,13.33,0,0,1,4-3.11,9.13,9.13,0,0,1,3.37-.62q6.19,0,6.19,7.24V28.1c0,1.47,1.06,2.28,3.18,2.44V32H288.32Z"/><path class="cls-1" d="M212.74,52.87a4,4,0,1,1-4-3.93A4,4,0,0,1,212.74,52.87Zm-1,0a3,3,0,1,0-3,3A3,3,0,0,0,211.72,52.87Zm-2.41.43,1.16,1.35h-1l-1.07-1.32h-.29v1.32h-.84V51H209c.93,0,1.45.46,1.45,1.18S210,53.21,209.31,53.3Zm-1.2-.65H209c.38,0,.61-.13.61-.43s-.23-.46-.61-.46h-.85Z"/></g></g></g></svg>